# xmcd
#
# Track frame offsets: 
#        183
#        14693
#        41575
#        67028
#        87428
#        103773
#        119198
#        134775
#        154195
#        164548
#
# Disc length: 2324 seconds
#
# Revision: 0
# Processed by: cddbd v1.5.1PL2 Copyright (c) Steve Scherf et al.
# Submitted via: ExactAudioCopy v0.95b2
#
DISCID=9909120a
DTITLE=Various Artist - Silverstone Compilation
DYEAR=1990
DGENRE=Rock
TTITLE0=Mary My Hope - Heads and Tales
TTITLE1=Mary My Hope - Monster is Bigger than the Man
TTITLE2=John Lee Hooker - The Healer
TTITLE3=John Lee Hooker - I'm In the Mood
TTITLE4=Brendan Crooker and the 5 O'Clock Shadows - No Money At All
TTITLE5=Brendan Croker and the 5 O'Clock Shadows - You Don't Need Me H
TTITLE5=ere
TTITLE6=The Stone Roses - (song for my) Sugar Spun Sister
TTITLE7=The Stone Roses - Fools Gold
TTITLE8=J.J. Cale - That Kind of Thing
TTITLE9=J.J. Cale - Blond Headed Woman
EXTD=
EXTT0=
EXTT1=
EXTT2=
EXTT3=
EXTT4=
EXTT5=
EXTT6=
EXTT7=
EXTT8=
EXTT9=
PLAYORDER=
